# xmcd CD database file
#
# Track frame offsets:
#	182
#	10745
#	23877
#	38665
#	51702
#	62472
#	75667
#	88565
#	102855
#	114205
#	125675
#	136492
#	149862
#	159172
#	173130
#	184927
#	196767
#	207775
#	222855
#	237465
#
# Disc length: 3335 seconds
#
# Revision: 2
# Processed by: cddbd v1.5.2PL0 Copyright (c) Steve Scherf et al.
# Submitted via: jetAudio 7
#
DISCID=150d0514
DTITLE=Frankie Laine - His Greatest Hits
DYEAR=1988
DGENRE=Country
TTITLE0=Frankie Laine - I believe
TTITLE1=Frankie Laine - Moonlight gambler
TTITLE2=Frankie Laine - Jealosy (Jalousie)
TTITLE3=Frankie Laine - Rain,rain,rain.
TTITLE4=Frankie Laine - 16Tons
TTITLE5=Frankie Laine - The cry of the wild goose
TTITLE6=Frankie Laine - Granada
TTITLE7=Frankie Laine - Don"t fence me in
TTITLE8=Frankie Laine - Rose,Rose, I love you
TTITLE9=Frankie Laine - Answer me
TTITLE10=Frankie Laine - A woman in love
TTITLE11=Frankie Laine - Wheel of fortune
TTITLE12=Frankie Laine - Rawhide
TTITLE13=Frankie laine - Still, runs cool water
TTITLE14=Frankie Laine - Strange woman in town
TTITLE15=Frankie Laine - Mule train
TTITLE16=Frankie Laine - Hummingbird
TTITLE17=Frankie Laine - Jezebel
TTITLE18=Frankie Laine - There must be a reason
TTITLE19=Frankie Laine - High noon (Do not forsake me)
EXTD=
EXTT0=
EXTT1=
EXTT2=
EXTT3=
EXTT4=
EXTT5=
EXTT6=
EXTT7=
EXTT8=
EXTT9=
EXTT10=
EXTT11=
EXTT12=
EXTT13=
EXTT14=
EXTT15=
EXTT16=
EXTT17=
EXTT18=
EXTT19=
PLAYORDER=
